# xmcd CD database file
#
# Track frame offsets:
#	150
#	11395
#	25237
#	38870
#	55217
#	70805
#	83982
#	96237
#	109085
#	122840
#	141487
#
# Disc length: 2088 seconds
#
# Revision: 2
# Processed by: cddbd v1.4PL0 Copyright (c) Steve Scherf et al.
# Submitted via: CDex 1.40Release
#
DISCID=9408260b
DTITLE=Ricky Van Shelton - Ricky Van Shelton III
DYEAR=1990
DGENRE=Country
TTITLE0=I've Cried My Last Tear For You
TTITLE1=Statue Of A Fool
TTITLE2=You Would Do The Same For Me
TTITLE3=Life's Little Ups And Downs
TTITLE4=I'm Starting Over
TTITLE5=Love Is Burnin'
TTITLE6=Not That I Care
TTITLE7=Oh Pretty Woman
TTITLE8=I Meant Every Word He Said
TTITLE9=I Still Love You
TTITLE10=Sweet Memories (with Brenda Lee)
EXTD=YEAR: 1990 ID3G: 2
EXTT0=
EXTT1=
EXTT2=
EXTT3=
EXTT4=
EXTT5=
EXTT6=
EXTT7=
EXTT8=
EXTT9=
EXTT10=
PLAYORDER=
